<svg width="36" height="36" viewBox="0 0 36 36" fill="none" xmlns="http://www.w3.org/2000/svg">
<path fill-rule="evenodd" clip-rule="evenodd" d="M13.6364 16.75C12.903 16.75 12.75 16.8939 12.75 17.5833V18.8333C12.75 19.5228 12.903 19.6667 13.6364 19.6667H15.4091V24.6667C15.4091 25.3561 15.5621 25.5 16.2955 25.5H18.0682C18.8015 25.5 18.9545 25.3561 18.9545 24.6667V19.6667H20.945C21.5012 19.6667 21.6446 19.565 21.7973 19.0623L22.1772 17.8123C22.4389 16.951 22.2776 16.75 21.3249 16.75H18.9545V14.6667C18.9545 14.2064 19.3514 13.8333 19.8409 13.8333H22.3636C23.0969 13.8333 23.25 13.6894 23.25 13V11.3333C23.25 10.6439 23.0969 10.5 22.3636 10.5H19.8409C17.3933 10.5 15.4091 12.3655 15.4091 14.6667V16.75H13.6364Z" stroke="#FCFCFD" stroke-width="1.125" stroke-linejoin="round"/>
</svg>
