<svg width="36" height="36" viewBox="0 0 36 36" fill="none" xmlns="http://www.w3.org/2000/svg">
<path d="M7.40558 16.5938C7.73182 14.1353 8.90453 11.8596 10.732 10.1645C11.8849 9.09496 13.2489 8.30269 14.7204 7.82818C14.1671 8.45447 13.7003 9.22399 13.3142 10.0763L13.3141 10.0766C12.8243 11.1599 12.4479 12.4147 12.1949 13.763L12.1945 13.765C12.0225 14.7001 11.9085 15.6449 11.8531 16.5938H7.40558ZM12.1948 22.2366L12.195 22.2375C12.449 23.5851 12.8241 24.8399 13.3141 25.9234L13.3142 25.9237C13.7011 26.7779 14.1691 27.5489 14.724 28.1759C10.8549 26.9311 7.9476 23.5409 7.40477 19.4062H11.8534C11.91 20.3734 12.0243 21.3246 12.1948 22.2366Z" fill="#984308" stroke="#984308" stroke-width="1.125"/>
<path d="M21.2801 7.82823C22.7516 8.30275 24.1155 9.095 25.2684 10.1645C27.0958 11.8596 28.2685 14.1353 28.5948 16.5938H24.1469C24.0904 15.6266 23.9761 14.6754 23.8055 13.7634L23.8055 13.763C23.5525 12.4152 23.1774 11.1602 22.6862 10.0765C22.3009 9.22376 21.8335 8.45434 21.2801 7.82823ZM23.8055 22.237L23.8058 22.235C23.9779 21.2999 24.0919 20.3551 24.1473 19.4062H28.5956C28.0528 23.5409 25.1455 26.931 21.2765 28.1758C21.8315 27.5489 22.3002 26.7779 22.6863 25.9232C23.1775 24.8396 23.5526 23.5847 23.8055 22.237Z" fill="#984308" stroke="#984308" stroke-width="1.125"/>
<path opacity="0.5" d="M17.2057 9.29274L17.2061 9.29237C17.5934 8.93797 17.8629 8.88306 17.9997 8.88306C18.1365 8.88306 18.4062 8.93795 18.7947 9.29255C19.1899 9.65461 19.6184 10.254 20.0117 11.124L20.0122 11.1252C20.4025 11.9835 20.7236 13.0351 20.9466 14.2261C21.0912 15.009 21.1896 15.7996 21.2411 16.5938H14.7595C14.813 15.7794 14.9117 14.9843 15.0528 14.2266C15.2757 13.0369 15.5979 11.9836 15.9876 11.1233L15.9877 11.1231C16.3812 10.2539 16.8108 9.65349 17.2057 9.29274ZM15.0528 21.7733L15.0527 21.7731C14.9107 21.0165 14.8119 20.2209 14.7589 19.4063H21.2406C21.1876 20.2209 21.0887 21.0165 20.9468 21.7731L20.9467 21.7733C20.7239 22.9641 20.4016 24.0164 20.0119 24.8768L20.0118 24.877C19.6182 25.7465 19.1896 26.347 18.7945 26.7089C18.4061 27.0633 18.1365 27.1182 17.9997 27.1182C17.8641 27.1182 17.5934 27.0633 17.2051 26.7078C16.8109 26.3468 16.3811 25.7462 15.9877 24.877L15.9876 24.8768C15.5979 24.0164 15.2756 22.9641 15.0528 21.7733Z" fill="#984308" stroke="#984308" stroke-width="1.125"/>
</svg>
