<svg width="36" height="36" viewBox="0 0 36 36" fill="none" xmlns="http://www.w3.org/2000/svg">
<path opacity="0.5" d="M12.2602 26.888H12.26H12C11.5144 26.888 11.2006 26.8869 10.9694 26.8558C10.7527 26.8267 10.6847 26.7796 10.6466 26.7414L10.6453 26.7402C10.6084 26.7035 10.5614 26.6368 10.5322 26.4198C10.5011 26.1886 10.5 25.8746 10.5 25.389V24.277C10.5 23.7078 10.5148 23.6073 10.5668 23.5166C10.6195 23.4247 10.6816 23.3736 11.1205 23.1181C12.3946 22.3771 13.9341 21.8003 15.4455 21.5884C16.9612 21.3759 18.4003 21.5359 19.5229 22.2054C19.6494 22.2809 19.7609 22.3722 19.8588 22.4801L19.8601 22.4815C19.9495 22.5792 20.0184 22.6939 20.0627 22.8187C20.107 22.9435 20.1258 23.0759 20.118 23.2081C20.1102 23.3403 20.0759 23.4696 20.0173 23.5884C19.9586 23.7071 19.8767 23.8129 19.7764 23.8994L19.7674 23.9072L19.7587 23.9154C19.6986 23.9725 19.6252 24.0137 19.5452 24.0354L19.7339 25.0146C19.86 24.9999 19.9817 24.9833 20.0988 24.9649L20.0996 24.9648C21.1375 24.7996 21.9846 24.2473 22.6983 23.708C22.6983 23.708 22.6984 23.7079 22.6985 23.7079L24.5022 22.3461C24.7388 22.1755 25.0232 22.0837 25.315 22.0837C25.6066 22.0837 25.8908 22.1754 26.1274 22.3458C26.5224 22.6467 26.5919 23.0784 26.3868 23.4073C25.9655 24.0826 25.3992 24.8993 24.8802 25.3802C24.3656 25.857 23.5682 26.3048 22.8806 26.6367L22.8805 26.6368C22.1688 26.9806 21.3691 27.1844 20.527 27.3214C18.8298 27.5956 17.0591 27.5532 15.3778 27.2072C14.3523 26.9962 13.3078 26.8885 12.2602 26.888Z" fill="#984308" stroke="#984308"/>
<path d="M12.6074 9.64151C12.6773 9.29769 12.7857 9.09344 12.9396 8.93958C13.0934 8.78578 13.2979 8.67743 13.6416 8.60724C13.5548 8.8418 13.418 9.05725 13.2379 9.2374C13.0577 9.41768 12.8422 9.55467 12.6074 9.64151ZM22.3585 8.60745C22.7024 8.67735 22.9066 8.78573 23.0605 8.93958C23.2143 9.09338 23.3226 9.29794 23.3928 9.64158C23.1583 9.55483 22.9428 9.41801 22.7627 9.23794C22.5824 9.05774 22.4454 8.84218 22.3585 8.60745ZM23.0605 15.0605C22.9066 15.2143 22.7024 15.3227 22.3585 15.3926C22.4454 15.1579 22.5824 14.9423 22.7627 14.7621C22.9428 14.582 23.1583 14.4452 23.3928 14.3585C23.3226 14.7021 23.2143 14.9067 23.0605 15.0605ZM13.6415 15.3926C13.2977 15.3227 13.0934 15.2143 12.9396 15.0605C12.7858 14.9067 12.6774 14.7021 12.6072 14.3585C12.8418 14.4452 13.0572 14.582 13.2374 14.7621C13.4177 14.9423 13.5547 15.1579 13.6415 15.3926Z" fill="#984308" stroke="#984308"/>
<path d="M15.0052 12.9948C14.5577 12.5473 14.0206 12.2099 13.4361 12C14.0206 11.7901 14.5577 11.4527 15.0052 11.0052C15.6835 10.3269 16.1088 9.44302 16.2205 8.5H19.7795C19.8912 9.44302 20.3165 10.3269 20.9948 11.0052C21.4423 11.4527 21.9794 11.7901 22.5639 12C21.9794 12.2099 21.4423 12.5473 20.9948 12.9948C20.3165 13.6731 19.8912 14.557 19.7795 15.5H16.2205C16.1088 14.557 15.6835 13.6731 15.0052 12.9948ZM18 13.5C18.3978 13.5 18.7794 13.342 19.0607 13.0607C19.342 12.7794 19.5 12.3978 19.5 12C19.5 11.6022 19.342 11.2206 19.0607 10.9393C18.7794 10.658 18.3978 10.5 18 10.5C17.6022 10.5 17.2206 10.658 16.9393 10.9393C16.658 11.2206 16.5 11.6022 16.5 12C16.5 12.3978 16.658 12.7794 16.9393 13.0607C17.2206 13.342 17.6022 13.5 18 13.5Z" fill="#984308" stroke="#984308"/>
</svg>
