<svg width="24" height="24" viewBox="0 0 24 24" fill="none" xmlns="http://www.w3.org/2000/svg">
<path d="M16.1082 12.0001C16.1138 12 16.1194 12 16.125 12C17.989 12 19.5 13.511 19.5 15.375C19.5 17.239 17.989 18.75 16.125 18.75H8.25C6.17893 18.75 4.5 17.071 4.5 15C4.5 13.0502 5.98799 11.4481 7.89032 11.267M16.1082 12.0001C16.1193 11.8766 16.125 11.7514 16.125 11.625C16.125 9.34682 14.2782 7.5 12 7.5C9.84243 7.5 8.07175 9.15647 7.89032 11.267M16.1082 12.0001C16.0315 12.8509 15.6964 13.6272 15.1821 14.25M7.89032 11.267C8.0087 11.2558 8.12867 11.25 8.25 11.25C9.09437 11.25 9.87355 11.5291 10.5004 12" stroke="#4F5563" stroke-width="1.125" stroke-linecap="round" stroke-linejoin="round"/>
<path d="M11.25 7.14794C11.1796 6.78529 11.0496 6.42803 10.8564 6.0901C10.3945 5.28219 9.65702 4.7351 8.83309 4.5C8.96042 5.53474 8.47864 6.5938 7.52819 7.14794C6.57775 7.70207 5.4286 7.59387 4.60488 6.96515C4.39454 7.80326 4.49499 8.72174 4.9569 9.52965C5.58154 10.6222 6.71014 11.2379 7.875 11.25" stroke="#4F5563" stroke-width="1.125" stroke-linejoin="round"/>
</svg>
