<svg width="36" height="36" viewBox="0 0 36 36" fill="none" xmlns="http://www.w3.org/2000/svg">
<path d="M12.375 16.125H12C11.2929 16.125 10.9393 16.125 10.7197 16.3447C10.5 16.5643 10.5 16.9179 10.5 17.625V24C10.5 24.7071 10.5 25.0606 10.7197 25.2803C10.9393 25.5 11.2929 25.5 12 25.5H12.375C13.0821 25.5 13.4357 25.5 13.6553 25.2803C13.875 25.0606 13.875 24.7071 13.875 24V17.625C13.875 16.9179 13.875 16.5643 13.6553 16.3447C13.4357 16.125 13.0821 16.125 12.375 16.125Z" stroke="#FCFCFD" stroke-width="1.125"/>
<path d="M13.875 12.1875C13.875 13.1195 13.1195 13.875 12.1875 13.875C11.2555 13.875 10.5 13.1195 10.5 12.1875C10.5 11.2555 11.2555 10.5 12.1875 10.5C13.1195 10.5 13.875 11.2555 13.875 12.1875Z" stroke="#FCFCFD" stroke-width="1.125"/>
<path d="M18.2445 16.125H17.625C16.9179 16.125 16.5643 16.125 16.3447 16.3447C16.125 16.5643 16.125 16.9179 16.125 17.625V24C16.125 24.7071 16.125 25.0606 16.3447 25.2803C16.5643 25.5 16.9179 25.5 17.625 25.5H18C18.7071 25.5 19.0606 25.5 19.2803 25.2803C19.5 25.0606 19.5 24.7071 19.5 24L19.5001 21.3751C19.5001 20.1325 19.8961 19.1251 21.0659 19.1251C21.6508 19.1251 22.125 19.6288 22.125 20.2501V23.6251C22.125 24.3322 22.125 24.6857 22.3447 24.9054C22.5643 25.1251 22.9179 25.1251 23.625 25.1251H23.999C24.706 25.1251 25.0594 25.1251 25.2791 24.9055C25.4988 24.6859 25.4989 24.3324 25.499 23.6255L25.5001 19.5002C25.5001 17.6363 23.7273 16.1252 21.9726 16.1252C20.9737 16.1252 20.0825 16.6148 19.5001 17.3805C19.5 16.9079 19.5 16.6717 19.3974 16.4962C19.3324 16.3851 19.2398 16.2926 19.1288 16.2277C18.9533 16.125 18.7171 16.125 18.2445 16.125Z" stroke="#FCFCFD" stroke-width="1.125" stroke-linejoin="round"/>
</svg>
