<svg width="24" height="24" viewBox="0 0 24 24" fill="none" xmlns="http://www.w3.org/2000/svg">
<path d="M7.216 4.09V4.59904L7.72495 4.58992C8.38957 4.57802 9.13674 4.578 9.984 4.578H14.016C14.8632 4.578 15.6094 4.57802 16.2751 4.58992L16.784 4.59902V4.09V2.692C16.784 2.62658 16.8559 2.5 17.04 2.5C17.2241 2.5 17.296 2.62658 17.296 2.692V4.15V4.61478L17.7595 4.64867C19.181 4.75258 19.9902 5.00461 20.5616 5.52701C21.1197 6.0382 21.3867 6.75015 21.5 8.022V8.5H2.5V8.022C2.61326 6.75046 2.88021 6.0391 3.43867 5.52676C4.01006 5.0045 4.81834 4.75256 6.24043 4.64867L6.704 4.61481V4.15V2.692C6.704 2.62699 6.77644 2.5 6.96 2.5C7.14411 2.5 7.216 2.62658 7.216 2.692V4.09Z" fill="#984308" stroke="#984308"/>
<path opacity="0.5" d="M21.5 12V14C21.5 15.8998 21.4995 17.2741 21.359 18.3222C21.2204 19.3559 20.954 19.9969 20.4765 20.4744C19.9988 20.9521 19.3578 21.2189 18.3246 21.358C17.2769 21.4989 15.9032 21.5 14.004 21.5H10.004C8.10488 21.5 6.73085 21.4989 5.6828 21.358C4.64921 21.2189 4.00764 20.9521 3.52942 20.4743C3.05297 19.9973 2.78662 19.3562 2.64783 18.3225C2.50708 17.2742 2.50602 15.8996 2.50602 14V12C2.50602 11.7307 2.50472 11.398 2.50335 11.0481C2.50127 10.5177 2.49904 9.94799 2.50096 9.5H21.4818C21.4918 10.2472 21.5 11.3325 21.5 12Z" fill="#984308" stroke="#984308"/>
<path d="M21.2369 20.8829L21.4618 20.5425C21.7411 20.1197 21.9176 19.6374 21.9774 19.1342C22.0371 18.631 21.9783 18.1209 21.8057 17.6444C21.6332 17.168 21.3516 16.7385 20.9835 16.3903C20.6154 16.042 20.1709 15.7847 19.6857 15.6388C19.2004 15.4929 18.6877 15.4625 18.1886 15.5501C17.6895 15.6376 17.2178 15.8406 16.8111 16.1429C16.4045 16.4452 16.0741 16.8384 15.8464 17.2911C15.6188 17.7438 15.5002 18.2435 15.5 18.7502L21.2369 20.8829ZM21.2369 20.8829L21.5253 21.1715M21.2369 20.8829L21.5253 21.1715M21.5253 21.1715L22.9263 22.5735L22.9326 22.5798M21.5253 21.1715L22.9326 22.5798M22.9326 22.5798L22.9391 22.5859M22.9326 22.5798L22.9391 22.5859M22.9391 22.5859C22.9637 22.6088 22.9834 22.6364 22.9971 22.667C23.0107 22.6977 23.0181 22.7308 23.0187 22.7644C23.0193 22.7979 23.0131 22.8313 23.0005 22.8624L23.4641 23.0497M22.9391 22.5859L23.4641 23.0497M23.4641 23.0497L23.0005 22.8624C22.9879 22.8935 22.9692 22.9218 22.9455 22.9456C22.9217 22.9693 22.8935 22.988 22.8623 23.0006L23.0073 23.3594L22.8623 23.0006C22.8312 23.0132 22.7979 23.0193 22.7643 23.0187C22.7307 23.0181 22.6976 23.0108 22.667 22.9971C22.6363 22.9835 22.6087 22.9638 22.5858 22.9392L22.5797 22.9327M23.4641 23.0497L22.5797 22.9327M22.5797 22.9327L22.5734 22.9264M22.5797 22.9327L22.5734 22.9264M22.5734 22.9264L21.1714 21.5254L20.8827 21.2369M22.5734 22.9264L20.8827 21.2369M20.8827 21.2369L20.5423 21.462M20.8827 21.2369L20.5423 21.462M20.5423 21.462C20.0524 21.7858 19.4839 21.9709 18.8973 21.9975M20.5423 21.462L18.8973 21.9975M18.8973 21.9975C18.3107 22.0241 17.7278 21.8913 17.2106 21.6131M18.8973 21.9975L17.2106 21.6131M17.2106 21.6131C16.6934 21.335 16.2613 20.9219 15.9601 20.4178M17.2106 21.6131L15.9601 20.4178M15.9601 20.4178C15.6589 19.9137 15.4999 19.3374 15.5 18.7502L15.9601 20.4178ZM16.8055 16.8055L17.159 17.1591L16.8055 16.8055C16.5501 17.0609 16.3475 17.364 16.2093 17.6977C16.0711 18.0313 16 18.3889 16 18.7501C16 19.1112 16.0711 19.4688 16.2093 19.8024C16.3475 20.1361 16.5501 20.4393 16.8055 20.6946C17.0608 20.95 17.364 21.1525 17.6976 21.2907C18.0313 21.4289 18.3889 21.5001 18.75 21.5001C19.4793 21.5001 20.1788 21.2103 20.6945 20.6946C21.2103 20.1789 21.5 19.4794 21.5 18.7501C21.5 18.0207 21.2103 17.3213 20.6945 16.8055C20.1788 16.2898 19.4793 16.0001 18.75 16.0001C18.3889 16.0001 18.0313 16.0712 17.6976 16.2094C17.364 16.3476 17.0608 16.5502 16.8055 16.8055Z" fill="#984308" stroke="#984308"/>
</svg>
