<svg width="36" height="36" viewBox="0 0 36 36" fill="none" xmlns="http://www.w3.org/2000/svg">
<path d="M18 24.375C19.3573 24.375 20.6588 24.2409 21.8651 23.9951C23.3717 23.6879 24.1251 23.5343 24.8126 22.6504C25.5 21.7666 25.5 20.752 25.5 18.7226V17.2774C25.5 15.248 25.5 14.2334 24.8126 13.3495C24.1251 12.4657 23.3717 12.3121 21.8651 12.005C20.6588 11.7591 19.3573 11.625 18 11.625C16.6427 11.625 15.3412 11.7591 14.1349 12.005C12.6282 12.3121 11.8749 12.4657 11.1874 13.3495C10.5 14.2334 10.5 15.248 10.5 17.2774V18.7226C10.5 20.752 10.5 21.7666 11.1874 22.6504C11.8749 23.5343 12.6282 23.6879 14.1349 23.9951C15.3412 24.2409 16.6427 24.375 18 24.375Z" stroke="#FCFCFD" stroke-width="1.125"/>
<path d="M20.9716 18.2347C20.8603 18.689 20.2681 19.0153 19.0837 19.6681C17.7954 20.3779 17.1513 20.7328 16.6296 20.5961C16.4529 20.5498 16.2901 20.4683 16.1535 20.3578C15.75 20.0317 15.75 19.3544 15.75 18C15.75 16.6456 15.75 15.9683 16.1535 15.6421C16.2901 15.5316 16.4529 15.4502 16.6296 15.4039C17.1513 15.2672 17.7954 15.6221 19.0837 16.3319C20.2681 16.9846 20.8603 17.311 20.9716 17.7653C21.0095 17.92 21.0095 18.08 20.9716 18.2347Z" stroke="#FCFCFD" stroke-width="1.125" stroke-linejoin="round"/>
</svg>
